<svg width="12" height="13" viewBox="0 0 12 13" fill="none" xmlns="http://www.w3.org/2000/svg">
<path id="check_circle" d="M5.01667 9.18372L9.12917 5.07122L8.3125 4.25455L5.01667 7.55039L3.35417 5.88789L2.5375 6.70455L5.01667 9.18372ZM5.83333 12.3337C5.02639 12.3337 4.26806 12.1805 3.55833 11.8741C2.84861 11.568 2.23125 11.1525 1.70625 10.6275C1.18125 10.1025 0.765722 9.48511 0.459667 8.77539C0.153222 8.06566 0 7.30733 0 6.50039C0 5.69344 0.153222 4.93511 0.459667 4.22539C0.765722 3.51566 1.18125 2.8983 1.70625 2.3733C2.23125 1.8483 2.84861 1.43258 3.55833 1.12614C4.26806 0.820081 5.02639 0.667053 5.83333 0.667053C6.64028 0.667053 7.39861 0.820081 8.10833 1.12614C8.81806 1.43258 9.43542 1.8483 9.96042 2.3733C10.4854 2.8983 10.9009 3.51566 11.207 4.22539C11.5134 4.93511 11.6667 5.69344 11.6667 6.50039C11.6667 7.30733 11.5134 8.06566 11.207 8.77539C10.9009 9.48511 10.4854 10.1025 9.96042 10.6275C9.43542 11.1525 8.81806 11.568 8.10833 11.8741C7.39861 12.1805 6.64028 12.3337 5.83333 12.3337Z" fill="#6F7979"/>
</svg>
