<svg width="24" height="24" viewBox="0 0 24 24" fill="none" xmlns="http://www.w3.org/2000/svg">
<g id="local_mall">
<mask id="mask0_1347_1068" style="mask-type:alpha" maskUnits="userSpaceOnUse" x="0" y="0" width="24" height="24">
<rect id="Bounding box" width="24" height="24" fill="#D9D9D9"/>
</mask>
<g mask="url(#mask0_1347_1068)">
<path id="local_mall_2" d="M5 22C4.45 22 3.979 21.8043 3.587 21.413C3.19567 21.021 3 20.55 3 20V8C3 7.45 3.19567 6.97933 3.587 6.588C3.979 6.196 4.45 6 5 6H7C7 4.61667 7.48767 3.43733 8.463 2.462C9.43767 1.48733 10.6167 1 12 1C13.3833 1 14.5627 1.48733 15.538 2.462C16.5127 3.43733 17 4.61667 17 6H19C19.55 6 20.021 6.196 20.413 6.588C20.8043 6.97933 21 7.45 21 8V20C21 20.55 20.8043 21.021 20.413 21.413C20.021 21.8043 19.55 22 19 22H5ZM5 20H19V8H5V20ZM12 14C13.3833 14 14.5627 13.5123 15.538 12.537C16.5127 11.5623 17 10.3833 17 9H15C15 9.83333 14.7083 10.5417 14.125 11.125C13.5417 11.7083 12.8333 12 12 12C11.1667 12 10.4583 11.7083 9.875 11.125C9.29167 10.5417 9 9.83333 9 9H7C7 10.3833 7.48767 11.5623 8.463 12.537C9.43767 13.5123 10.6167 14 12 14ZM9 6H15C15 5.16667 14.7083 4.45833 14.125 3.875C13.5417 3.29167 12.8333 3 12 3C11.1667 3 10.4583 3.29167 9.875 3.875C9.29167 4.45833 9 5.16667 9 6Z" fill="#1C1B1F"/>
</g>
</g>
</svg>
